<svg width="1001" height="496" viewBox="0 0 1001 496" fill="none" xmlns="http://www.w3.org/2000/svg">
<g opacity="0.29827">
<path d="M1008.08 163.448L443.182 -356.858V-747.19L28.1096 -770C24.9043 -762.456 4.36709 -740.714 7.57176 -728.596C11.43 -714.102 30.8387 -718.735 36.4776 -709.409C43.0661 -698.42 31.7291 -653.749 28.3457 -640.86C21.8759 -616.445 7.09676 -596.665 2.82235 -572.25C-4.35982 -531.263 10.1824 -534.53 37.7242 -508.927C84.141 -465.742 46.9244 -420.952 58.6176 -370.223C68.1146 -328.878 109.605 -307.554 124.8 -266.211C136.553 -234.37 152.697 -226.233 177.746 -202.947C177.153 -217.084 164.51 -258.785 188.253 -255.102C211.817 -251.478 202.736 -216.669 207.247 -202.115C211.045 -189.997 237.933 -165.761 215.616 -154.593C208.196 -150.91 187.066 -165.582 178.577 -169.503C184.572 -150.791 180.774 -131.367 190.271 -113.487C201.608 -92.162 213.835 -100.359 228.853 -88.7754C244.344 -76.8355 242.683 -63.1137 235.797 -45.0554C228.615 -26.2247 221.196 -29.1352 232.592 -6.44342C240.843 9.95119 254.85 30.7421 266.9 43.2164C273.904 50.4634 281.502 52.1267 288.506 61.3932C294.323 69.1155 292.067 79.2142 299.012 86.1638C310.883 98.1037 331.006 98.282 340.384 113.904C350.831 131.309 338.96 144.437 369.706 142.833C371.309 177.643 377.897 209.185 377.541 243.994C394.695 250.825 422.414 242.687 440.399 239.063C458.266 263.18 481.355 246.429 501.774 259.558C510.678 265.26 508.837 279.517 514.239 284.506C525.339 294.723 533.529 288.308 547.301 291.872C557.51 294.486 565.404 301.97 575.138 304.703C584.338 307.257 599.475 301.258 606.301 309.396C614.492 319.138 600.78 336.958 613.127 344.799C623.395 351.333 638.115 335.77 648.088 338.027C659.721 340.7 693.079 371.174 701.271 381.212C710.59 392.677 719.969 414.062 725.25 428.793C733.501 451.841 732.373 463.127 749.408 479.998C760.27 490.75 749.942 491.522 767.63 494.67C779.204 496.749 794.518 488.374 806.212 487.067C830.549 484.394 855.122 489.027 879.102 484.453C901.421 480.176 922.729 473.166 945.64 469.899C965.465 467.048 1000.37 469.246 1017.94 459.801C1036.99 449.643 1038.71 426.654 1011.17 430.932C1008.97 416.26 1018.77 396.003 1007.85 385.847C1023.04 365.056 1028.56 350.384 1030.93 324.959C1032 313.792 1032.48 301.436 1038 292.05C1043.4 282.783 1058.59 277.259 1061.56 269.299C1066.13 256.943 1058.83 251.419 1053.25 244.528C1049.69 240.073 1039.54 242.212 1036.63 238.291C1031.23 231.103 1036.57 223.678 1033.6 216.431C1024.94 195.462 1014.61 187.205 1008.08 163.444C1008.26 167.424 1008.44 171.463 1008.2 175.384" stroke="white" stroke-width="2" stroke-linecap="round" stroke-linejoin="round"/>
</g>
<g class="line-animation" filter="url(#filter0_d)">
<path d="M729.114 83.9394C720.546 107.321 740.614 115.526 756.675 130.807C761.434 135.336 761.888 142.817 756.879 147.342C746.107 157.074 780.409 162.672 783 175.5C785.676 188.749 764.882 212.701 772.5 232.5C803 287 867.5 232.5 858 301.5C832 432.5 740.284 469.169 729.114 465.5" stroke="white" stroke-width="2"/>
</g>
<path class="animate__animated animate__fadeIn animate__delay-3s" fill-rule="evenodd" clip-rule="evenodd" d="M729.5 472C733.09 472 736 469.09 736 465.5C736 461.91 733.09 459 729.5 459C725.91 459 723 461.91 723 465.5C723 469.09 725.91 472 729.5 472Z" fill="#4AF6CD"/>
<path class="animate__animated animate__fadeIn animate__delay-1s" fill-rule="evenodd" clip-rule="evenodd" d="M661 363C662.657 363 664 361.657 664 360C664 358.343 662.657 357 661 357C659.343 357 658 358.343 658 360C658 361.657 659.343 363 661 363Z" fill="#4AF6CD"/>
<path class="animate__animated animate__fadeIn animate__delay-1s" fill-rule="evenodd" clip-rule="evenodd" d="M575 322C576.657 322 578 320.657 578 319C578 317.343 576.657 316 575 316C573.343 316 572 317.343 572 319C572 320.657 573.343 322 575 322Z" fill="#4AF6CD"/>
<path class="animate__animated animate__fadeIn animate__delay-1s" fill-rule="evenodd" clip-rule="evenodd" d="M365 228C366.657 228 368 226.657 368 225C368 223.343 366.657 222 365 222C363.343 222 362 223.343 362 225C362 226.657 363.343 228 365 228Z" fill="#4AF6CD"/>
<path class="animate__animated animate__fadeIn animate__delay-2s" fill-rule="evenodd" clip-rule="evenodd" d="M729.5 91C733.09 91 736 88.0899 736 84.5C736 80.9101 733.09 78 729.5 78C725.91 78 723 80.9101 723 84.5C723 88.0899 725.91 91 729.5 91Z" fill="#4AF6CD"/>
<path class="animate__animated animate__fadeIn animate__delay-3s" d="M542.414 459.784C543.15 459.784 543.779 459.891 544.302 460.104C544.824 460.307 545.331 460.627 545.822 461.064L544.99 461.992C544.574 461.661 544.163 461.421 543.758 461.272C543.363 461.112 542.936 461.032 542.478 461.032C541.902 461.032 541.427 461.165 541.054 461.432C540.68 461.699 540.494 462.088 540.494 462.6C540.494 462.92 540.558 463.192 540.686 463.416C540.814 463.629 541.048 463.827 541.39 464.008C541.742 464.189 542.248 464.381 542.91 464.584C543.603 464.797 544.179 465.027 544.638 465.272C545.096 465.517 545.464 465.859 545.742 466.296C546.03 466.723 546.174 467.267 546.174 467.928C546.174 468.568 546.014 469.133 545.694 469.624C545.384 470.115 544.931 470.499 544.334 470.776C543.747 471.053 543.048 471.192 542.238 471.192C540.712 471.192 539.464 470.717 538.494 469.768L539.326 468.84C539.774 469.203 540.227 469.48 540.686 469.672C541.144 469.853 541.656 469.944 542.222 469.944C542.904 469.944 543.47 469.779 543.918 469.448C544.366 469.107 544.59 468.616 544.59 467.976C544.59 467.613 544.52 467.315 544.382 467.08C544.243 466.835 544.003 466.616 543.662 466.424C543.331 466.232 542.846 466.04 542.206 465.848C541.075 465.507 540.248 465.096 539.726 464.616C539.203 464.136 538.942 463.485 538.942 462.664C538.942 462.109 539.086 461.613 539.374 461.176C539.672 460.739 540.083 460.397 540.606 460.152C541.139 459.907 541.742 459.784 542.414 459.784ZM551.501 462.376C552.685 462.376 553.602 462.771 554.253 463.56C554.914 464.349 555.245 465.421 555.245 466.776C555.245 467.651 555.095 468.424 554.797 469.096C554.498 469.757 554.066 470.275 553.501 470.648C552.935 471.011 552.263 471.192 551.485 471.192C550.301 471.192 549.378 470.797 548.717 470.008C548.055 469.219 547.725 468.147 547.725 466.792C547.725 465.917 547.874 465.149 548.173 464.488C548.471 463.816 548.903 463.299 549.469 462.936C550.034 462.563 550.711 462.376 551.501 462.376ZM551.501 463.56C550.039 463.56 549.309 464.637 549.309 466.792C549.309 468.936 550.034 470.008 551.485 470.008C552.935 470.008 553.661 468.931 553.661 466.776C553.661 464.632 552.941 463.56 551.501 463.56ZM563.948 471H562.684L562.572 469.688C562.252 470.211 561.884 470.595 561.468 470.84C561.052 471.075 560.546 471.192 559.948 471.192C559.212 471.192 558.636 470.968 558.22 470.52C557.804 470.072 557.596 469.437 557.596 468.616V462.568H559.068V468.456C559.068 469.032 559.17 469.443 559.372 469.688C559.575 469.923 559.906 470.04 560.364 470.04C561.186 470.04 561.89 469.555 562.476 468.584V462.568H563.948V471ZM571.245 470.616C570.69 471 570.061 471.192 569.357 471.192C568.642 471.192 568.082 470.989 567.677 470.584C567.282 470.168 567.085 469.571 567.085 468.792V463.704H565.613V462.568H567.085V460.664L568.557 460.488V462.568H570.557L570.397 463.704H568.557V468.728C568.557 469.165 568.631 469.485 568.781 469.688C568.941 469.88 569.202 469.976 569.565 469.976C569.895 469.976 570.269 469.864 570.685 469.64L571.245 470.616ZM576.738 462.376C577.506 462.376 578.103 462.605 578.53 463.064C578.967 463.523 579.186 464.152 579.186 464.952V471H577.714V465.16C577.714 464.563 577.597 464.141 577.362 463.896C577.138 463.651 576.807 463.528 576.37 463.528C575.933 463.528 575.543 463.656 575.202 463.912C574.861 464.168 574.541 464.531 574.242 465V471H572.77V459.192L574.242 459.032V463.736C574.903 462.829 575.735 462.376 576.738 462.376ZM589.179 459.784C589.915 459.784 590.545 459.891 591.067 460.104C591.59 460.307 592.097 460.627 592.587 461.064L591.755 461.992C591.339 461.661 590.929 461.421 590.523 461.272C590.129 461.112 589.702 461.032 589.243 461.032C588.667 461.032 588.193 461.165 587.819 461.432C587.446 461.699 587.259 462.088 587.259 462.6C587.259 462.92 587.323 463.192 587.451 463.416C587.579 463.629 587.814 463.827 588.155 464.008C588.507 464.189 589.014 464.381 589.675 464.584C590.369 464.797 590.945 465.027 591.403 465.272C591.862 465.517 592.23 465.859 592.507 466.296C592.795 466.723 592.939 467.267 592.939 467.928C592.939 468.568 592.779 469.133 592.459 469.624C592.15 470.115 591.697 470.499 591.099 470.776C590.513 471.053 589.814 471.192 589.003 471.192C587.478 471.192 586.23 470.717 585.259 469.768L586.091 468.84C586.539 469.203 586.993 469.48 587.451 469.672C587.91 469.853 588.422 469.944 588.987 469.944C589.67 469.944 590.235 469.779 590.683 469.448C591.131 469.107 591.355 468.616 591.355 467.976C591.355 467.613 591.286 467.315 591.147 467.08C591.009 466.835 590.769 466.616 590.427 466.424C590.097 466.232 589.611 466.04 588.971 465.848C587.841 465.507 587.014 465.096 586.491 464.616C585.969 464.136 585.707 463.485 585.707 462.664C585.707 462.109 585.851 461.613 586.139 461.176C586.438 460.739 586.849 460.397 587.371 460.152C587.905 459.907 588.507 459.784 589.179 459.784ZM599.066 462.376C599.834 462.376 600.431 462.605 600.858 463.064C601.295 463.523 601.514 464.152 601.514 464.952V471H600.042V465.16C600.042 464.563 599.925 464.141 599.69 463.896C599.466 463.651 599.135 463.528 598.698 463.528C598.261 463.528 597.871 463.656 597.53 463.912C597.189 464.168 596.869 464.531 596.57 465V471H595.098V459.192L596.57 459.032V463.736C597.231 462.829 598.063 462.376 599.066 462.376ZM607.641 462.376C608.825 462.376 609.742 462.771 610.393 463.56C611.054 464.349 611.385 465.421 611.385 466.776C611.385 467.651 611.236 468.424 610.937 469.096C610.638 469.757 610.206 470.275 609.641 470.648C609.076 471.011 608.404 471.192 607.625 471.192C606.441 471.192 605.518 470.797 604.857 470.008C604.196 469.219 603.865 468.147 603.865 466.792C603.865 465.917 604.014 465.149 604.313 464.488C604.612 463.816 605.044 463.299 605.609 462.936C606.174 462.563 606.852 462.376 607.641 462.376ZM607.641 463.56C606.18 463.56 605.449 464.637 605.449 466.792C605.449 468.936 606.174 470.008 607.625 470.008C609.076 470.008 609.801 468.931 609.801 466.776C609.801 464.632 609.081 463.56 607.641 463.56ZM617.481 462.376C617.78 462.376 618.057 462.408 618.313 462.472L618.041 463.912C617.785 463.848 617.54 463.816 617.305 463.816C616.782 463.816 616.361 464.008 616.041 464.392C615.721 464.776 615.47 465.373 615.289 466.184V471H613.817V462.568H615.081L615.225 464.28C615.449 463.651 615.753 463.176 616.137 462.856C616.521 462.536 616.969 462.376 617.481 462.376ZM625.872 466.536C625.872 466.781 625.862 467.032 625.84 467.288H620.464C620.528 468.216 620.763 468.899 621.168 469.336C621.574 469.773 622.096 469.992 622.736 469.992C623.142 469.992 623.515 469.933 623.856 469.816C624.198 469.699 624.555 469.512 624.928 469.256L625.568 470.136C624.672 470.84 623.691 471.192 622.624 471.192C621.451 471.192 620.534 470.808 619.872 470.04C619.222 469.272 618.896 468.216 618.896 466.872C618.896 465.997 619.035 465.224 619.312 464.552C619.6 463.869 620.006 463.336 620.528 462.952C621.062 462.568 621.686 462.376 622.4 462.376C623.52 462.376 624.379 462.744 624.976 463.48C625.574 464.216 625.872 465.235 625.872 466.536ZM624.416 466.104C624.416 465.272 624.251 464.637 623.92 464.2C623.59 463.763 623.094 463.544 622.432 463.544C621.227 463.544 620.571 464.429 620.464 466.2H624.416V466.104ZM634.41 458.184V472.568H634.058V458.184H634.41ZM653.237 471H651.765L651.381 466.024C651.221 464.072 651.131 462.573 651.109 461.528L648.725 469.752H647.301L644.789 461.512C644.789 462.845 644.72 464.387 644.581 466.136L644.213 471H642.773L643.685 459.976H645.733L648.053 467.992L650.261 459.976H652.325L653.237 471ZM661.434 469.032C661.434 469.373 661.493 469.629 661.61 469.8C661.728 469.96 661.904 470.083 662.138 470.168L661.802 471.192C661.365 471.139 661.013 471.016 660.746 470.824C660.48 470.632 660.282 470.333 660.154 469.928C659.589 470.771 658.752 471.192 657.642 471.192C656.81 471.192 656.154 470.957 655.674 470.488C655.194 470.019 654.954 469.405 654.954 468.648C654.954 467.752 655.274 467.064 655.914 466.584C656.565 466.104 657.482 465.864 658.666 465.864H659.962V465.24C659.962 464.643 659.818 464.216 659.53 463.96C659.242 463.704 658.8 463.576 658.202 463.576C657.584 463.576 656.826 463.725 655.93 464.024L655.562 462.952C656.608 462.568 657.578 462.376 658.474 462.376C659.466 462.376 660.208 462.621 660.698 463.112C661.189 463.592 661.434 464.28 661.434 465.176V469.032ZM657.978 470.088C658.821 470.088 659.482 469.651 659.962 468.776V466.84H658.858C657.301 466.84 656.522 467.416 656.522 468.568C656.522 469.069 656.645 469.448 656.89 469.704C657.136 469.96 657.498 470.088 657.978 470.088ZM665.981 471.192C665.437 471.192 665.005 471.032 664.685 470.712C664.376 470.381 664.221 469.923 664.221 469.336V459.176L665.693 459V469.304C665.693 469.539 665.731 469.709 665.805 469.816C665.891 469.923 666.029 469.976 666.221 469.976C666.424 469.976 666.605 469.944 666.765 469.88L667.149 470.904C666.797 471.096 666.408 471.192 665.981 471.192ZM670.461 462.568V471H668.989V462.568H670.461ZM669.709 458.52C670.018 458.52 670.269 458.616 670.461 458.808C670.653 459 670.749 459.24 670.749 459.528C670.749 459.816 670.653 460.056 670.461 460.248C670.269 460.429 670.018 460.52 669.709 460.52C669.41 460.52 669.165 460.429 668.973 460.248C668.781 460.056 668.685 459.816 668.685 459.528C668.685 459.24 668.781 459 668.973 458.808C669.165 458.616 669.41 458.52 669.709 458.52ZM677.36 462.376C678.32 462.376 679.083 462.765 679.648 463.544C680.214 464.312 680.496 465.389 680.496 466.776C680.496 467.651 680.363 468.424 680.096 469.096C679.83 469.757 679.446 470.275 678.944 470.648C678.443 471.011 677.856 471.192 677.184 471.192C676.299 471.192 675.552 470.819 674.944 470.072L674.8 471H673.504V459.176L674.976 459V463.624C675.584 462.792 676.379 462.376 677.36 462.376ZM676.832 470.024C677.483 470.024 677.99 469.763 678.352 469.24C678.726 468.707 678.912 467.885 678.912 466.776C678.912 465.635 678.742 464.813 678.4 464.312C678.059 463.8 677.574 463.544 676.944 463.544C676.198 463.544 675.542 463.981 674.976 464.856V468.888C675.2 469.24 675.472 469.517 675.792 469.72C676.123 469.923 676.47 470.024 676.832 470.024ZM689.276 471H688.012L687.9 469.688C687.58 470.211 687.212 470.595 686.796 470.84C686.38 471.075 685.874 471.192 685.276 471.192C684.54 471.192 683.964 470.968 683.548 470.52C683.132 470.072 682.924 469.437 682.924 468.616V462.568H684.396V468.456C684.396 469.032 684.498 469.443 684.7 469.688C684.903 469.923 685.234 470.04 685.692 470.04C686.514 470.04 687.218 469.555 687.804 468.584V462.568H689.276V471ZM692.701 468.968C693.021 468.968 693.288 469.075 693.501 469.288C693.714 469.501 693.821 469.763 693.821 470.072C693.821 470.403 693.725 470.781 693.533 471.208L692.461 473.656H691.405L692.045 471C691.906 470.893 691.794 470.76 691.709 470.6C691.634 470.44 691.597 470.264 691.597 470.072C691.597 469.763 691.704 469.501 691.917 469.288C692.13 469.075 692.392 468.968 692.701 468.968ZM704.331 459.784C704.992 459.784 705.547 459.869 705.995 460.04C706.454 460.211 706.918 460.488 707.387 460.872L706.555 461.848C705.883 461.304 705.174 461.032 704.427 461.032C703.51 461.032 702.768 461.384 702.203 462.088C701.648 462.792 701.371 463.923 701.371 465.48C701.371 466.995 701.648 468.115 702.203 468.84C702.758 469.555 703.494 469.912 704.411 469.912C704.88 469.912 705.291 469.832 705.643 469.672C705.995 469.512 706.368 469.288 706.763 469L707.515 469.96C707.174 470.312 706.736 470.605 706.203 470.84C705.67 471.075 705.056 471.192 704.363 471.192C703.467 471.192 702.667 470.973 701.963 470.536C701.27 470.088 700.726 469.437 700.331 468.584C699.947 467.72 699.755 466.685 699.755 465.48C699.755 464.275 699.958 463.245 700.363 462.392C700.768 461.528 701.318 460.877 702.011 460.44C702.704 460.003 703.478 459.784 704.331 459.784ZM715.3 471L714.468 468.232H710.292L709.46 471H707.924L711.46 459.976H713.38L716.9 471H715.3ZM710.66 467H714.1L712.388 461.24L710.66 467Z" fill="white"/>
<path class="animate__animated animate__fadeIn animate__delay-2s" d="M598.378 75.784C599.039 75.784 599.594 75.8693 600.042 76.04C600.501 76.2107 600.965 76.488 601.434 76.872L600.602 77.848C599.93 77.304 599.221 77.032 598.474 77.032C597.557 77.032 596.815 77.384 596.25 78.088C595.695 78.792 595.418 79.9227 595.418 81.48C595.418 82.9947 595.695 84.1147 596.25 84.84C596.805 85.5547 597.541 85.912 598.458 85.912C598.927 85.912 599.338 85.832 599.69 85.672C600.042 85.512 600.415 85.288 600.81 85L601.562 85.96C601.221 86.312 600.783 86.6053 600.25 86.84C599.717 87.0747 599.103 87.192 598.41 87.192C597.514 87.192 596.714 86.9733 596.01 86.536C595.317 86.088 594.773 85.4373 594.378 84.584C593.994 83.72 593.802 82.6853 593.802 81.48C593.802 80.2747 594.005 79.2453 594.41 78.392C594.815 77.528 595.365 76.8773 596.058 76.44C596.751 76.0027 597.525 75.784 598.378 75.784ZM609.401 87H608.137L608.025 85.688C607.705 86.2107 607.337 86.5947 606.921 86.84C606.505 87.0747 605.999 87.192 605.401 87.192C604.665 87.192 604.089 86.968 603.673 86.52C603.257 86.072 603.049 85.4373 603.049 84.616V78.568H604.521V84.456C604.521 85.032 604.623 85.4427 604.825 85.688C605.028 85.9227 605.359 86.04 605.817 86.04C606.639 86.04 607.343 85.5547 607.929 84.584V78.568H609.401V87ZM616.106 78.376C616.405 78.376 616.682 78.408 616.938 78.472L616.666 79.912C616.41 79.848 616.165 79.816 615.93 79.816C615.407 79.816 614.986 80.008 614.666 80.392C614.346 80.776 614.095 81.3733 613.914 82.184V87H612.442V78.568H613.706L613.85 80.28C614.074 79.6507 614.378 79.176 614.762 78.856C615.146 78.536 615.594 78.376 616.106 78.376ZM622.278 78.376C622.576 78.376 622.854 78.408 623.11 78.472L622.838 79.912C622.582 79.848 622.336 79.816 622.102 79.816C621.579 79.816 621.158 80.008 620.838 80.392C620.518 80.776 620.267 81.3733 620.086 82.184V87H618.614V78.568H619.878L620.022 80.28C620.246 79.6507 620.55 79.176 620.934 78.856C621.318 78.536 621.766 78.376 622.278 78.376ZM630.669 82.536C630.669 82.7813 630.659 83.032 630.637 83.288H625.261C625.325 84.216 625.56 84.8987 625.965 85.336C626.371 85.7733 626.893 85.992 627.533 85.992C627.939 85.992 628.312 85.9333 628.653 85.816C628.995 85.6987 629.352 85.512 629.725 85.256L630.365 86.136C629.469 86.84 628.488 87.192 627.421 87.192C626.248 87.192 625.331 86.808 624.669 86.04C624.019 85.272 623.693 84.216 623.693 82.872C623.693 81.9973 623.832 81.224 624.109 80.552C624.397 79.8693 624.803 79.336 625.325 78.952C625.859 78.568 626.483 78.376 627.197 78.376C628.317 78.376 629.176 78.744 629.773 79.48C630.371 80.216 630.669 81.2347 630.669 82.536ZM629.213 82.104C629.213 81.272 629.048 80.6373 628.717 80.2C628.387 79.7627 627.891 79.544 627.229 79.544C626.024 79.544 625.368 80.4293 625.261 82.2H629.213V82.104ZM636.988 78.376C637.756 78.376 638.353 78.6053 638.78 79.064C639.217 79.5227 639.436 80.152 639.436 80.952V87H637.964V81.16C637.964 80.5627 637.852 80.1413 637.628 79.896C637.404 79.6507 637.073 79.528 636.636 79.528C636.188 79.528 635.793 79.656 635.452 79.912C635.111 80.168 634.791 80.536 634.492 81.016V87H633.02V78.568H634.284L634.412 79.816C634.711 79.368 635.079 79.016 635.516 78.76C635.964 78.504 636.455 78.376 636.988 78.376ZM646.651 86.616C646.096 87 645.467 87.192 644.763 87.192C644.048 87.192 643.488 86.9893 643.083 86.584C642.688 86.168 642.491 85.5707 642.491 84.792V79.704H641.019V78.568H642.491V76.664L643.963 76.488V78.568H645.963L645.803 79.704H643.963V84.728C643.963 85.1653 644.038 85.4853 644.187 85.688C644.347 85.88 644.608 85.976 644.971 85.976C645.302 85.976 645.675 85.864 646.091 85.64L646.651 86.616ZM654.011 75.976V85.672H658.539L658.363 87H652.491V75.976H654.011ZM663.141 78.376C664.325 78.376 665.242 78.7707 665.893 79.56C666.554 80.3493 666.885 81.4213 666.885 82.776C666.885 83.6507 666.736 84.424 666.437 85.096C666.138 85.7573 665.706 86.2747 665.141 86.648C664.576 87.0107 663.904 87.192 663.125 87.192C661.941 87.192 661.018 86.7973 660.357 86.008C659.696 85.2187 659.365 84.1467 659.365 82.792C659.365 81.9173 659.514 81.1493 659.813 80.488C660.112 79.816 660.544 79.2987 661.109 78.936C661.674 78.5627 662.352 78.376 663.141 78.376ZM663.141 79.56C661.68 79.56 660.949 80.6373 660.949 82.792C660.949 84.936 661.674 86.008 663.125 86.008C664.576 86.008 665.301 84.9307 665.301 82.776C665.301 80.632 664.581 79.56 663.141 79.56ZM672.389 78.376C672.89 78.376 673.349 78.4507 673.765 78.6C674.181 78.7387 674.581 78.968 674.965 79.288L674.261 80.216C673.962 80.0027 673.669 79.848 673.381 79.752C673.104 79.6453 672.794 79.592 672.453 79.592C671.77 79.592 671.237 79.864 670.853 80.408C670.48 80.952 670.293 81.7573 670.293 82.824C670.293 83.8907 670.48 84.68 670.853 85.192C671.226 85.6933 671.76 85.944 672.453 85.944C672.784 85.944 673.088 85.896 673.365 85.8C673.642 85.6933 673.952 85.528 674.293 85.304L674.965 86.264C674.197 86.8827 673.338 87.192 672.389 87.192C671.248 87.192 670.346 86.808 669.685 86.04C669.034 85.272 668.709 84.2107 668.709 82.856C668.709 81.96 668.858 81.176 669.157 80.504C669.456 79.832 669.877 79.3093 670.421 78.936C670.976 78.5627 671.632 78.376 672.389 78.376ZM682.481 85.032C682.481 85.3733 682.54 85.6293 682.657 85.8C682.775 85.96 682.951 86.0827 683.185 86.168L682.849 87.192C682.412 87.1387 682.06 87.016 681.793 86.824C681.527 86.632 681.329 86.3333 681.201 85.928C680.636 86.7707 679.799 87.192 678.689 87.192C677.857 87.192 677.201 86.9573 676.721 86.488C676.241 86.0187 676.001 85.4053 676.001 84.648C676.001 83.752 676.321 83.064 676.961 82.584C677.612 82.104 678.529 81.864 679.713 81.864H681.009V81.24C681.009 80.6427 680.865 80.216 680.577 79.96C680.289 79.704 679.847 79.576 679.249 79.576C678.631 79.576 677.873 79.7253 676.977 80.024L676.609 78.952C677.655 78.568 678.625 78.376 679.521 78.376C680.513 78.376 681.255 78.6213 681.745 79.112C682.236 79.592 682.481 80.28 682.481 81.176V85.032ZM679.025 86.088C679.868 86.088 680.529 85.6507 681.009 84.776V82.84H679.905C678.348 82.84 677.569 83.416 677.569 84.568C677.569 85.0693 677.692 85.448 677.937 85.704C678.183 85.96 678.545 86.088 679.025 86.088ZM689.76 86.616C689.206 87 688.576 87.192 687.872 87.192C687.158 87.192 686.598 86.9893 686.192 86.584C685.798 86.168 685.6 85.5707 685.6 84.792V79.704H684.128V78.568H685.6V76.664L687.072 76.488V78.568H689.072L688.912 79.704H687.072V84.728C687.072 85.1653 687.147 85.4853 687.296 85.688C687.456 85.88 687.718 85.976 688.08 85.976C688.411 85.976 688.784 85.864 689.2 85.64L689.76 86.616ZM692.758 78.568V87H691.286V78.568H692.758ZM692.006 74.52C692.315 74.52 692.566 74.616 692.758 74.808C692.95 75 693.046 75.24 693.046 75.528C693.046 75.816 692.95 76.056 692.758 76.248C692.566 76.4293 692.315 76.52 692.006 76.52C691.707 76.52 691.462 76.4293 691.27 76.248C691.078 76.056 690.982 75.816 690.982 75.528C690.982 75.24 691.078 75 691.27 74.808C691.462 74.616 691.707 74.52 692.006 74.52ZM698.969 78.376C700.153 78.376 701.071 78.7707 701.721 79.56C702.383 80.3493 702.713 81.4213 702.713 82.776C702.713 83.6507 702.564 84.424 702.265 85.096C701.967 85.7573 701.535 86.2747 700.969 86.648C700.404 87.0107 699.732 87.192 698.953 87.192C697.769 87.192 696.847 86.7973 696.185 86.008C695.524 85.2187 695.193 84.1467 695.193 82.792C695.193 81.9173 695.343 81.1493 695.641 80.488C695.94 79.816 696.372 79.2987 696.937 78.936C697.503 78.5627 698.18 78.376 698.969 78.376ZM698.969 79.56C697.508 79.56 696.777 80.6373 696.777 82.792C696.777 84.936 697.503 86.008 698.953 86.008C700.404 86.008 701.129 84.9307 701.129 82.776C701.129 80.632 700.409 79.56 698.969 79.56ZM709.113 78.376C709.881 78.376 710.478 78.6053 710.905 79.064C711.342 79.5227 711.561 80.152 711.561 80.952V87H710.089V81.16C710.089 80.5627 709.977 80.1413 709.753 79.896C709.529 79.6507 709.198 79.528 708.761 79.528C708.313 79.528 707.918 79.656 707.577 79.912C707.236 80.168 706.916 80.536 706.617 81.016V87H705.145V78.568H706.409L706.537 79.816C706.836 79.368 707.204 79.016 707.641 78.76C708.089 78.504 708.58 78.376 709.113 78.376Z" fill="white"/>
<defs>
<filter id="filter0_d" x="722.065" y="83.5953" width="141.88" height="391.15" filterUnits="userSpaceOnUse" color-interpolation-filters="sRGB">
<feFlood flood-opacity="0" result="BackgroundImageFix"/>
<feColorMatrix in="SourceAlpha" type="matrix" values="0 0 0 0 0 0 0 0 0 0 0 0 0 0 0 0 0 0 127 0"/>
<feOffset dy="4"/>
<feGaussianBlur stdDeviation="2"/>
<feColorMatrix type="matrix" values="0 0 0 0 0 0 0 0 0 0 0 0 0 0 0 0 0 0 0.25 0"/>
<feBlend mode="normal" in2="BackgroundImageFix" result="effect1_dropShadow"/>
<feBlend mode="normal" in="SourceGraphic" in2="effect1_dropShadow" result="shape"/>
</filter>
</defs>
</svg>
